#N canvas 549 465 1688 1044 12;
#X obj 239 233 f;
#X obj 274 233 + 1;
#X floatatom 239 257 5 0 0 0 - - - 0;
#X obj 239 280 mod 3;
#X floatatom 239 312 5 0 0 0 - - - 0;
#X obj 337 155 metro 500;
#X obj 773 163 vsl 19 162 50 1000 0 0 empty empty empty 0 -9 0 12 #fcfcfc #000000 #000000 0 1;
#N canvas 364 453 1125 745 readToseq 0;
#X obj 384 126 sel 1;
#X obj 621 127 sel 2;
#X obj 141 170 bng 19 250 50 0 empty empty empty 0 -10 0 12 #fcfcfc #000000 #000000;
#X obj 379 176 bng 19 250 50 0 empty empty empty 0 -10 0 12 #fcfcfc #000000 #000000;
#X obj 612 175 bng 19 250 50 0 empty empty empty 0 -10 0 12 #fcfcfc #000000 #000000;
#X obj 142 507 tabread4~ seq_read;
#X obj 40 384 soundfiler;
#X obj 144 473 vline~;
#X obj 387 509 tabread4~ seq_read;
#X obj 341 378 soundfiler;
#X obj 389 475 vline~;
#X obj 661 504 tabread4~ seq_read;
#X obj 615 373 soundfiler;
#X obj 663 470 vline~;
#X msg 142 447 \$1 5000;
#X msg 387 449 \$1 5000;
#X msg 661 444 \$1 5000;
#X obj 147 -70 inlet;
#X obj 168 556 outlet~;
#X msg 615 341 read -resize 5.wav seq_read;
#X obj 141 409 random 1.5552e+06;
#X obj 386 411 random 1.5552e+06;
#X obj 660 406 random 1.5552e+06;
#X msg 40 360 read -resize \$1.wav seq_read;
#X msg 340 353 read -resize 5.wav seq_read;
#X obj 38 251 random 2;
#X obj 38 275 + 3;
#X obj 703 -67 inlet;
#X text 754 -83 clock global;
#N canvas 114 279 1059 800 cell2 0;
#X obj -23 29 inlet;
#X obj -52 564 outlet;
#X obj 360 523 outlet;
#X text 356 544 ramp;
#X obj 123 140 hradio 15 1 1 2 empty empty qnt 3 7 0 10 #fcfcfc #000000 #7c7c7c 1;
#X obj 274 -59 inlet;
#X text 275 -81 clockpulse for quantization;
#X obj 126 161 hsl 50 15 0 1 0 1 empty empty value 2 8 0 10 #fcfcfc #000000 #7c7c7c 2200 1;
#X obj 184 566 outlet;
#X text 182 591 value (0..1);
#X obj 123 121 nbx 5 14 -1e+37 1e+37 0 1 empty empty empty 0 -8 0 10 #fcfcfc #000000 #000000 1192 256;
#X obj 104 123 vsl 15 50 0 1 0 1 empty empty bl 2 6 0 10 #fcfcfc #000000 #7c7c7c 3100 1;
#X text -89 588 bang (unquantized);
#X text 261 33 a 'cell' \, a little like in neural nets or a cellular automaton. it passes pulses from in to out with a defined speed \, and blocks incoming pulses for a defined time after triggering.;
#X obj 160 140 bng 15 250 50 0 empty empty empty 17 7 0 10 #fcfcfc #000000 #000000;
#X text 191 117 speed (delaytime);
#X text 190 157 a value (0..1) as a trigger-velocity or whatever.;
#X text 191 137 quantize off/on (needs a clockpulse) \, start;
#N canvas 449 481 450 300 blink 0;
#X obj 66 39 inlet;
#X obj 69 249 outlet;
#X msg 111 172 color 0;
#X obj 48 85 t b b;
#X obj 61 123 delay 250;
#X msg 178 172 color 100;
#X connect 0 0 3 0;
#X connect 2 0 1 0;
#X connect 3 0 4 0;
#X connect 3 1 5 0;
#X connect 4 0 2 0;
#X connect 5 0 1 0;
#X restore 204 236 pd blink;
#N canvas 1 81 755 704 cell2 0;
#X obj 189 299 metro 1;
#X obj 219 334 f;
#X obj 255 345 +;
#X obj 260 394 wrap;
#X obj 231 499 <;
#X obj 314 280 /;
#X msg 290 236 1;
#X obj 309 207 t b f;
#X obj 320 172 clip 1 100000;
#X obj 25 3 inlet;
#X obj 445 53 inlet;
#X text 448 28 speed (ms);
#X text 27 -23 start;
#X obj 213 465 f;
#X obj 230 428 t f f b;
#X obj 225 546 select 1;
#X msg 135 631 stop;
#X obj 246 636 outlet;
#X obj 603 557 outlet;
#X text 297 412 message-ramp with 1 ms samplerate;
#X text 274 677 bang;
#X text 283 523 detect period and stop ramp;
#X obj 223 579 t b b;
#X text 608 583 ramp;
#X msg 184 260 0;
#X obj 104 170 spigot 1;
#X obj 196 98 delay 1;
#X msg 193 146 1;
#X text 144 123 block for n ms after trig;
#X obj 266 71 clip 1 100000;
#X obj 328 27 inlet;
#X obj 439 121 *;
#X obj 434 97 t b f;
#X text 333 1 blocktime (factor);
#X msg 229 148 0;
#X obj 26 34 t b;
#X obj 103 87 pipe;
#X msg 71 34 clear;
#X text 15 64 remember bangs while blocked;
#X obj 106 216 t b b b b;
#X connect 0 0 1 0;
#X connect 1 0 2 0;
#X connect 2 0 3 0;
#X connect 3 0 1 1;
#X connect 3 0 14 0;
#X connect 3 0 18 0;
#X connect 4 0 15 0;
#X connect 5 0 2 1;
#X connect 6 0 5 0;
#X connect 7 0 6 0;
#X connect 7 1 5 1;
#X connect 8 0 7 0;
#X connect 8 0 31 0;
#X connect 9 0 35 0;
#X connect 10 0 8 0;
#X connect 13 0 4 1;
#X connect 14 0 13 1;
#X connect 14 1 4 0;
#X connect 14 2 13 0;
#X connect 15 0 22 0;
#X connect 16 0 0 0;
#X connect 22 0 16 0;
#X connect 22 1 17 0;
#X connect 24 0 1 1;
#X connect 25 0 39 0;
#X connect 26 0 27 0;
#X connect 27 0 25 1;
#X connect 29 0 26 1;
#X connect 29 0 36 1;
#X connect 30 0 32 0;
#X connect 31 0 29 0;
#X connect 32 0 31 0;
#X connect 32 1 31 1;
#X connect 34 0 25 1;
#X connect 35 0 36 0;
#X connect 35 0 25 0;
#X connect 36 0 25 0;
#X connect 37 0 36 0;
#X connect 39 0 37 0;
#X connect 39 1 0 0;
#X connect 39 2 24 0;
#X connect 39 3 26 0;
#X connect 39 3 34 0;
#X restore 24 269 pd cell2;
#N canvas 1 81 565 413 quantize 0;
#X obj 75 89 inlet;
#X obj 354 61 inlet;
#X text 354 32 clock;
#X obj 30 348 outlet;
#X obj 126 155 t b b;
#X obj 58 204 int;
#X msg 73 146 1;
#X msg 95 206 0;
#X obj 61 244 select 1;
#X text 81 64 bang (event);
#X obj -2 165 spigot;
#X obj 61 283 spigot;
#X obj 255 63 inlet;
#X text 265 42 on/off;
#X obj 278 193 <= 0;
#X obj 322 195 > 0;
#X connect 0 0 6 0;
#X connect 0 0 10 0;
#X connect 1 0 4 0;
#X connect 4 0 7 0;
#X connect 4 1 5 0;
#X connect 5 0 8 0;
#X connect 6 0 5 1;
#X connect 7 0 5 1;
#X connect 8 0 11 0;
#X connect 10 0 3 0;
#X connect 11 0 3 0;
#X connect 12 0 14 0;
#X connect 12 0 15 0;
#X connect 14 0 10 1;
#X connect 15 0 11 1;
#X restore -6 346 pd quantize;
#X text 19 28 trigger;
#X obj 182 529 f;
#X connect 0 0 19 0;
#X connect 4 0 20 1;
#X connect 5 0 20 2;
#X connect 7 0 22 1;
#X connect 10 0 19 2;
#X connect 11 0 19 1;
#X connect 14 0 19 0;
#X connect 18 0 14 0;
#X connect 19 0 20 0;
#X connect 19 0 1 0;
#X connect 19 1 2 0;
#X connect 20 0 18 0;
#X connect 20 0 22 0;
#X connect 22 0 8 0;
#X coords 0 -1 1 1 80 80 1 100 100;
#X restore 136 27 pd cell2;
#N canvas 114 279 1059 800 cell2 0;
#X obj -23 29 inlet;
#X obj -52 564 outlet;
#X obj 360 523 outlet;
#X text 356 544 ramp;
#X obj 123 140 hradio 15 1 1 2 empty empty qnt 3 7 0 10 #fcfcfc #000000 #7c7c7c 1;
#X obj 274 -59 inlet;
#X text 275 -81 clockpulse for quantization;
#X obj 126 161 hsl 50 15 0 1 0 1 empty empty value 2 8 0 10 #fcfcfc #000000 #7c7c7c 2200 1;
#X obj 184 566 outlet;
#X text 182 591 value (0..1);
#X obj 123 121 nbx 5 14 -1e+37 1e+37 0 1 empty empty empty 0 -8 0 10 #fcfcfc #000000 #000000 1192 256;
#X obj 104 123 vsl 15 50 0 1 0 1 empty empty bl 2 6 0 10 #fcfcfc #000000 #7c7c7c 3100 1;
#X text -89 588 bang (unquantized);
#X text 261 33 a 'cell' \, a little like in neural nets or a cellular automaton. it passes pulses from in to out with a defined speed \, and blocks incoming pulses for a defined time after triggering.;
#X obj 160 140 bng 15 250 50 0 empty empty empty 17 7 0 10 #fcfcfc #000000 #000000;
#X text 191 117 speed (delaytime);
#X text 190 157 a value (0..1) as a trigger-velocity or whatever.;
#X text 191 137 quantize off/on (needs a clockpulse) \, start;
#N canvas 449 481 450 300 blink 0;
#X obj 66 39 inlet;
#X obj 69 249 outlet;
#X msg 111 172 color 0;
#X obj 48 85 t b b;
#X obj 61 123 delay 250;
#X msg 178 172 color 100;
#X connect 0 0 3 0;
#X connect 2 0 1 0;
#X connect 3 0 4 0;
#X connect 3 1 5 0;
#X connect 4 0 2 0;
#X connect 5 0 1 0;
#X restore 204 236 pd blink;
#N canvas 1 81 755 704 cell2 0;
#X obj 189 299 metro 1;
#X obj 219 334 f;
#X obj 255 345 +;
#X obj 260 394 wrap;
#X obj 231 499 <;
#X obj 314 280 /;
#X msg 290 236 1;
#X obj 309 207 t b f;
#X obj 320 172 clip 1 100000;
#X obj 25 3 inlet;
#X obj 445 53 inlet;
#X text 448 28 speed (ms);
#X text 27 -23 start;
#X obj 213 465 f;
#X obj 230 428 t f f b;
#X obj 225 546 select 1;
#X msg 135 631 stop;
#X obj 246 636 outlet;
#X obj 603 557 outlet;
#X text 297 412 message-ramp with 1 ms samplerate;
#X text 274 677 bang;
#X text 283 523 detect period and stop ramp;
#X obj 223 579 t b b;
#X text 608 583 ramp;
#X msg 184 260 0;
#X obj 104 170 spigot 1;
#X obj 196 98 delay 1;
#X msg 193 146 1;
#X text 144 123 block for n ms after trig;
#X obj 266 71 clip 1 100000;
#X obj 328 27 inlet;
#X obj 439 121 *;
#X obj 434 97 t b f;
#X text 333 1 blocktime (factor);
#X msg 229 148 0;
#X obj 26 34 t b;
#X obj 103 87 pipe;
#X msg 71 34 clear;
#X text 15 64 remember bangs while blocked;
#X obj 106 216 t b b b b;
#X connect 0 0 1 0;
#X connect 1 0 2 0;
#X connect 2 0 3 0;
#X connect 3 0 1 1;
#X connect 3 0 14 0;
#X connect 3 0 18 0;
#X connect 4 0 15 0;
#X connect 5 0 2 1;
#X connect 6 0 5 0;
#X connect 7 0 6 0;
#X connect 7 1 5 1;
#X connect 8 0 7 0;
#X connect 8 0 31 0;
#X connect 9 0 35 0;
#X connect 10 0 8 0;
#X connect 13 0 4 1;
#X connect 14 0 13 1;
#X connect 14 1 4 0;
#X connect 14 2 13 0;
#X connect 15 0 22 0;
#X connect 16 0 0 0;
#X connect 22 0 16 0;
#X connect 22 1 17 0;
#X connect 24 0 1 1;
#X connect 25 0 39 0;
#X connect 26 0 27 0;
#X connect 27 0 25 1;
#X connect 29 0 26 1;
#X connect 29 0 36 1;
#X connect 30 0 32 0;
#X connect 31 0 29 0;
#X connect 32 0 31 0;
#X connect 32 1 31 1;
#X connect 34 0 25 1;
#X connect 35 0 36 0;
#X connect 35 0 25 0;
#X connect 36 0 25 0;
#X connect 37 0 36 0;
#X connect 39 0 37 0;
#X connect 39 1 0 0;
#X connect 39 2 24 0;
#X connect 39 3 26 0;
#X connect 39 3 34 0;
#X restore 24 269 pd cell2;
#N canvas 1 81 565 413 quantize 0;
#X obj 75 89 inlet;
#X obj 354 61 inlet;
#X text 354 32 clock;
#X obj 30 348 outlet;
#X obj 126 155 t b b;
#X obj 58 204 int;
#X msg 73 146 1;
#X msg 95 206 0;
#X obj 61 244 select 1;
#X text 81 64 bang (event);
#X obj -2 165 spigot;
#X obj 61 283 spigot;
#X obj 255 63 inlet;
#X text 265 42 on/off;
#X obj 278 193 <= 0;
#X obj 322 195 > 0;
#X connect 0 0 6 0;
#X connect 0 0 10 0;
#X connect 1 0 4 0;
#X connect 4 0 7 0;
#X connect 4 1 5 0;
#X connect 5 0 8 0;
#X connect 6 0 5 1;
#X connect 7 0 5 1;
#X connect 8 0 11 0;
#X connect 10 0 3 0;
#X connect 11 0 3 0;
#X connect 12 0 14 0;
#X connect 12 0 15 0;
#X connect 14 0 10 1;
#X connect 15 0 11 1;
#X restore -6 346 pd quantize;
#X text 19 28 trigger;
#X obj 182 529 f;
#X connect 0 0 19 0;
#X connect 4 0 20 1;
#X connect 5 0 20 2;
#X connect 7 0 22 1;
#X connect 10 0 19 2;
#X connect 11 0 19 1;
#X connect 14 0 19 0;
#X connect 18 0 14 0;
#X connect 19 0 20 0;
#X connect 19 0 1 0;
#X connect 19 1 2 0;
#X connect 20 0 18 0;
#X connect 20 0 22 0;
#X connect 22 0 8 0;
#X coords 0 -1 1 1 80 80 1 100 100;
#X restore 462 -42 pd cell2;
#N canvas 114 279 1059 800 cell2 0;
#X obj -23 29 inlet;
#X obj -52 564 outlet;
#X obj 360 523 outlet;
#X text 356 544 ramp;
#X obj 123 140 hradio 15 1 1 2 empty empty qnt 3 7 0 10 #fcfcfc #000000 #7c7c7c 1;
#X obj 274 -59 inlet;
#X text 275 -81 clockpulse for quantization;
#X obj 126 161 hsl 50 15 0 1 0 1 empty empty value 2 8 0 10 #fcfcfc #000000 #7c7c7c 2200 1;
#X obj 184 566 outlet;
#X text 182 591 value (0..1);
#X obj 123 121 nbx 5 14 -1e+37 1e+37 0 1 empty empty empty 0 -8 0 10 #fcfcfc #000000 #000000 1192 256;
#X obj 104 123 vsl 15 50 0 1 0 1 empty empty bl 2 6 0 10 #fcfcfc #000000 #7c7c7c 3100 1;
#X text -89 588 bang (unquantized);
#X text 261 33 a 'cell' \, a little like in neural nets or a cellular automaton. it passes pulses from in to out with a defined speed \, and blocks incoming pulses for a defined time after triggering.;
#X obj 160 140 bng 15 250 50 0 empty empty empty 17 7 0 10 #fcfcfc #000000 #000000;
#X text 191 117 speed (delaytime);
#X text 190 157 a value (0..1) as a trigger-velocity or whatever.;
#X text 191 137 quantize off/on (needs a clockpulse) \, start;
#N canvas 449 481 450 300 blink 0;
#X obj 66 39 inlet;
#X obj 69 249 outlet;
#X msg 111 172 color 0;
#X obj 48 85 t b b;
#X obj 61 123 delay 250;
#X msg 178 172 color 100;
#X connect 0 0 3 0;
#X connect 2 0 1 0;
#X connect 3 0 4 0;
#X connect 3 1 5 0;
#X connect 4 0 2 0;
#X connect 5 0 1 0;
#X restore 204 236 pd blink;
#N canvas 1 81 755 704 cell2 0;
#X obj 189 299 metro 1;
#X obj 219 334 f;
#X obj 255 345 +;
#X obj 260 394 wrap;
#X obj 231 499 <;
#X obj 314 280 /;
#X msg 290 236 1;
#X obj 309 207 t b f;
#X obj 320 172 clip 1 100000;
#X obj 25 3 inlet;
#X obj 445 53 inlet;
#X text 448 28 speed (ms);
#X text 27 -23 start;
#X obj 213 465 f;
#X obj 230 428 t f f b;
#X obj 225 546 select 1;
#X msg 135 631 stop;
#X obj 246 636 outlet;
#X obj 603 557 outlet;
#X text 297 412 message-ramp with 1 ms samplerate;
#X text 274 677 bang;
#X text 283 523 detect period and stop ramp;
#X obj 223 579 t b b;
#X text 608 583 ramp;
#X msg 184 260 0;
#X obj 104 170 spigot 1;
#X obj 196 98 delay 1;
#X msg 193 146 1;
#X text 144 123 block for n ms after trig;
#X obj 266 71 clip 1 100000;
#X obj 328 27 inlet;
#X obj 439 121 *;
#X obj 434 97 t b f;
#X text 333 1 blocktime (factor);
#X msg 229 148 0;
#X obj 26 34 t b;
#X obj 103 87 pipe;
#X msg 71 34 clear;
#X text 15 64 remember bangs while blocked;
#X obj 106 216 t b b b b;
#X connect 0 0 1 0;
#X connect 1 0 2 0;
#X connect 2 0 3 0;
#X connect 3 0 1 1;
#X connect 3 0 14 0;
#X connect 3 0 18 0;
#X connect 4 0 15 0;
#X connect 5 0 2 1;
#X connect 6 0 5 0;
#X connect 7 0 6 0;
#X connect 7 1 5 1;
#X connect 8 0 7 0;
#X connect 8 0 31 0;
#X connect 9 0 35 0;
#X connect 10 0 8 0;
#X connect 13 0 4 1;
#X connect 14 0 13 1;
#X connect 14 1 4 0;
#X connect 14 2 13 0;
#X connect 15 0 22 0;
#X connect 16 0 0 0;
#X connect 22 0 16 0;
#X connect 22 1 17 0;
#X connect 24 0 1 1;
#X connect 25 0 39 0;
#X connect 26 0 27 0;
#X connect 27 0 25 1;
#X connect 29 0 26 1;
#X connect 29 0 36 1;
#X connect 30 0 32 0;
#X connect 31 0 29 0;
#X connect 32 0 31 0;
#X connect 32 1 31 1;
#X connect 34 0 25 1;
#X connect 35 0 36 0;
#X connect 35 0 25 0;
#X connect 36 0 25 0;
#X connect 37 0 36 0;
#X connect 39 0 37 0;
#X connect 39 1 0 0;
#X connect 39 2 24 0;
#X connect 39 3 26 0;
#X connect 39 3 34 0;
#X restore 24 269 pd cell2;
#N canvas 1 81 565 413 quantize 0;
#X obj 75 89 inlet;
#X obj 354 61 inlet;
#X text 354 32 clock;
#X obj 30 348 outlet;
#X obj 126 155 t b b;
#X obj 58 204 int;
#X msg 73 146 1;
#X msg 95 206 0;
#X obj 61 244 select 1;
#X text 81 64 bang (event);
#X obj -2 165 spigot;
#X obj 61 283 spigot;
#X obj 255 63 inlet;
#X text 265 42 on/off;
#X obj 278 193 <= 0;
#X obj 322 195 > 0;
#X connect 0 0 6 0;
#X connect 0 0 10 0;
#X connect 1 0 4 0;
#X connect 4 0 7 0;
#X connect 4 1 5 0;
#X connect 5 0 8 0;
#X connect 6 0 5 1;
#X connect 7 0 5 1;
#X connect 8 0 11 0;
#X connect 10 0 3 0;
#X connect 11 0 3 0;
#X connect 12 0 14 0;
#X connect 12 0 15 0;
#X connect 14 0 10 1;
#X connect 15 0 11 1;
#X restore -6 346 pd quantize;
#X text 19 28 trigger;
#X obj 182 529 f;
#X connect 0 0 19 0;
#X connect 4 0 20 1;
#X connect 5 0 20 2;
#X connect 7 0 22 1;
#X connect 10 0 19 2;
#X connect 11 0 19 1;
#X connect 14 0 19 0;
#X connect 18 0 14 0;
#X connect 19 0 20 0;
#X connect 19 0 1 0;
#X connect 19 1 2 0;
#X connect 20 0 18 0;
#X connect 20 0 22 0;
#X connect 22 0 8 0;
#X coords 0 -1 1 1 80 80 1 100 100;
#X restore 676 10 pd cell2;
#X text 793 17 cell2 from martin brinkmann;
#X obj 62 106 sel 0;
#X obj 877 187 table seq_read;
#X connect 0 0 30 0;
#X connect 1 0 31 0;
#X connect 2 0 20 0;
#X connect 2 0 25 0;
#X connect 3 0 24 0;
#X connect 3 0 21 0;
#X connect 4 0 19 0;
#X connect 4 0 22 0;
#X connect 5 0 18 0;
#X connect 7 0 5 0;
#X connect 8 0 18 0;
#X connect 10 0 8 0;
#X connect 11 0 18 0;
#X connect 13 0 11 0;
#X connect 14 0 7 0;
#X connect 15 0 10 0;
#X connect 16 0 13 0;
#X connect 17 0 0 0;
#X connect 17 0 1 0;
#X connect 17 0 33 0;
#X connect 19 0 12 0;
#X connect 20 0 14 0;
#X connect 21 0 15 0;
#X connect 22 0 16 0;
#X connect 23 0 6 0;
#X connect 24 0 9 0;
#X connect 25 0 26 0;
#X connect 26 0 23 0;
#X connect 27 0 29 1;
#X connect 27 0 30 1;
#X connect 27 0 31 1;
#X connect 29 0 30 0;
#X connect 29 1 2 0;
#X connect 30 0 29 0;
#X connect 30 0 31 0;
#X connect 30 1 3 0;
#X connect 31 0 29 0;
#X connect 31 1 4 0;
#X connect 33 0 29 0;
#X restore 343 397 pd readToseq;
#X obj 335 718 dac~;
#X obj 465 14 receive fromGUI;
#X obj 465 38 list trim;
#X obj 337 121 tgl 19 0 empty empty empty 0 -10 0 12 #fcfcfc #000000 #000000 0 1;
#X obj 473 540 s peaks3;
#X obj 473 509 sigmund~ -npeak 20 peaks -maxfreq 20000;
#X obj 465 86 * 1000;
#X obj 787 456 vsl 19 162 0 127 0 0 empty empty empty 0 -9 0 12 #fcfcfc #000000 #000000 0 1;
#X obj 949 176 vsl 19 162 0 127 0 0 empty empty empty 0 -9 0 12 #fcfcfc #000000 #000000 0 1;
#X obj 344 580 *~ 1;
#X obj 465 62 route /speedSlider /volumeSlider /volume2Slider /runToggle;
#X obj 318 65 loadbang;
#X obj 345 642 *~ 1;
#X obj 1038 620 receive fromGUI;
#X obj 1038 644 list trim;
#X obj 1038 668 route /panic /mode /intensity /phoneXY /runToggle;
#X obj 1038 700 sel 1;
#X obj 1038 724 t b;
#X msg 1038 748 list /phone/panic;
#X obj 1038 920 send toNetwork;
#X obj 1118 920 send toGUI;
#X msg 1038 880 list /phone/intensity \$1;
#X msg 1158 880 list /phone/x \$1;
#X msg 1158 900 list /phone/y \$2;
#X msg 1278 880 list /phone/runToggle \$1;
#X text 1038 580 OSC network router -- routes GUI signals to toNetwork and toGUI.;
#X text 1038 600 Handles /panic /mode /intensity /phoneXY /runToggle.;
#X text 1038 560 pendulum1 -- human expert edited version MobMuPlat OSC router;
#X obj 1178 700 int;
#X msg 1178 724 list /phone/mode \$1;
#X connect 0 0 1 0;
#X connect 0 0 2 0;
#X connect 1 0 0 1;
#X connect 2 0 3 0;
#X connect 3 0 4 0;
#X connect 4 0 7 0;
#X connect 5 0 0 0;
#X connect 5 0 7 1;
#X connect 7 0 13 0;
#X connect 7 0 17 0;
#X connect 9 0 10 0;
#X connect 10 0 18 0;
#X connect 11 0 5 0;
#X connect 13 0 12 0;
#X connect 14 0 6 0;
#X connect 17 0 20 0;
#X connect 18 0 14 0;
#X connect 18 1 15 0;
#X connect 18 2 16 0;
#X connect 18 3 11 0;
#X connect 18 4 12 0;
#X connect 21 0 22 0;
#X connect 22 0 23 0;
#X connect 23 0 24 0;
#X connect 24 0 25 0;
#X connect 25 0 26 0;
#X connect 26 0 27 0;
#X connect 23 1 36 0;
#X connect 36 0 37 0;
#X connect 37 0 27 0;
#X connect 23 2 29 0;
#X connect 29 0 27 0;
#X connect 23 3 30 0;
#X connect 23 3 31 0;
#X connect 30 0 27 0;
#X connect 31 0 27 0;
#X connect 23 4 32 0;
#X connect 32 0 27 0;
